<svg width="61" height="38" viewBox="0 0 61 38" fill="none" xmlns="http://www.w3.org/2000/svg">
<path d="M20.1974 26.2718C16.1811 26.2718 12.9252 23.016 12.9252 18.9996C12.9252 14.9833 16.1811 11.7274 20.1974 11.7274H41.0417C45.0581 11.7274 48.3139 14.9833 48.3139 18.9996C48.3139 23.016 45.0581 26.2718 41.0417 26.2718H20.1974Z" stroke="#0F85F9" stroke-width="6.61109"/>
<path d="M19.7379 0.177734C14.7456 0.177735 9.95776 2.16092 6.42766 5.69102C2.89756 9.22112 0.914368 14.009 0.914368 19.0013C0.914368 23.9936 2.89756 28.7814 6.42766 32.3115C9.95776 35.8416 14.7456 37.8248 19.7379 37.8248V31.4641C16.4326 31.4641 13.2626 30.1511 10.9254 27.8138C8.58813 25.4766 7.27508 22.3066 7.27508 19.0013C7.27508 15.6959 8.58812 12.526 10.9254 10.1887C13.2626 7.85149 16.4326 6.53845 19.7379 6.53845V0.177734Z" fill="#0F85F9"/>
<path d="M41.3487 0.177734C46.341 0.177735 51.1289 2.16092 54.659 5.69102C58.1891 9.22112 60.1723 14.009 60.1723 19.0013C60.1723 23.9936 58.1891 28.7814 54.659 32.3115C51.1289 35.8416 46.341 37.8248 41.3487 37.8248V31.4641C44.6541 31.4641 47.8241 30.1511 50.1613 27.8138C52.4985 25.4766 53.8116 22.3066 53.8116 19.0013C53.8116 15.6959 52.4985 12.526 50.1613 10.1887C47.8241 7.85149 44.6541 6.53845 41.3487 6.53845V0.177734Z" fill="#0F85F9"/>
</svg>
