<svg width="240" height="26" viewBox="0 0 240 26" fill="none" xmlns="http://www.w3.org/2000/svg">
<path d="M12.9003 25.3166C11.192 25.3166 9.61174 25.007 8.15966 24.3877C6.72893 23.7685 5.46903 22.9036 4.37997 21.7932C3.31226 20.6828 2.47944 19.3802 1.88153 17.8854C1.28361 16.3906 0.98465 14.757 0.98465 12.9846C0.98465 11.2122 1.27293 9.57859 1.84949 8.0838C2.44741 6.56765 3.28023 5.26505 4.34794 4.17598C5.437 3.06556 6.70757 2.21139 8.15966 1.61348C9.61174 0.994206 11.192 0.68457 12.9003 0.68457C14.6086 0.68457 16.1355 0.972852 17.4808 1.54942C18.8474 2.12598 20.0006 2.89473 20.9401 3.85567C21.8797 4.79525 22.5524 5.83093 22.9581 6.9627L19.0503 8.78849C18.6019 7.59265 17.8438 6.61036 16.7761 5.84161C15.7084 5.0515 14.4164 4.65645 12.9003 4.65645C11.4055 4.65645 10.0815 5.00879 8.92841 5.71348C7.79664 6.41817 6.91044 7.38979 6.26981 8.62833C5.65054 9.86687 5.34091 11.319 5.34091 12.9846C5.34091 14.6502 5.65054 16.113 6.26981 17.3729C6.91044 18.6114 7.79664 19.583 8.92841 20.2877C10.0815 20.9924 11.4055 21.3448 12.9003 21.3448C14.4164 21.3448 15.7084 20.9604 16.7761 20.1916C17.8438 19.4015 18.6019 18.4086 19.0503 17.2127L22.9581 19.0385C22.5524 20.1703 21.8797 21.2166 20.9401 22.1776C20.0006 23.1172 18.8474 23.8752 17.4808 24.4518C16.1355 25.0284 14.6086 25.3166 12.9003 25.3166Z" fill="#0F85F9"/>
<path d="M26.1425 24.9323V7.50724H30.0823V11.383L29.762 10.8065C30.1677 9.50385 30.7977 8.5963 31.6519 8.0838C32.5274 7.5713 33.5737 7.31505 34.7909 7.31505H35.8159V11.0307H34.3105C33.1146 11.0307 32.1537 11.4044 31.4276 12.1518C30.7016 12.8778 30.3386 13.9028 30.3386 15.2268V24.9323H26.1425Z" fill="#0F85F9"/>
<path d="M46.387 25.3166C44.5933 25.3166 43.0237 24.9109 41.6784 24.0994C40.3331 23.288 39.2867 22.1882 38.5393 20.8002C37.7919 19.4122 37.4182 17.8747 37.4182 16.1877C37.4182 14.4367 37.7919 12.8885 38.5393 11.5432C39.3081 10.1765 40.3438 9.09812 41.6464 8.30802C42.9703 7.51791 44.4438 7.12286 46.0667 7.12286C47.4334 7.12286 48.6292 7.34708 49.6542 7.79552C50.7006 8.24396 51.5868 8.86323 52.3128 9.65333C53.0388 10.4434 53.5941 11.351 53.9784 12.376C54.3628 13.3796 54.555 14.4687 54.555 15.6432C54.555 15.9421 54.5336 16.2518 54.4909 16.5721C54.4696 16.8924 54.4162 17.17 54.3308 17.4049H40.8776V14.2018H51.9605L49.9745 15.7072C50.1667 14.725 50.1133 13.8494 49.8144 13.0807C49.5368 12.3119 49.067 11.7033 48.405 11.2549C47.7644 10.8065 46.9849 10.5822 46.0667 10.5822C45.1912 10.5822 44.4117 10.8065 43.7284 11.2549C43.0451 11.682 42.5219 12.3226 42.1589 13.1768C41.8172 14.0096 41.6891 15.0239 41.7745 16.2197C41.6891 17.2875 41.8279 18.2377 42.1909 19.0705C42.5753 19.882 43.1305 20.5119 43.8565 20.9604C44.6039 21.4088 45.4581 21.633 46.419 21.633C47.38 21.633 48.1914 21.4302 48.8534 21.0244C49.5368 20.6187 50.0706 20.0742 50.455 19.3908L53.8503 21.0565C53.5086 21.8893 52.9748 22.626 52.2487 23.2666C51.5227 23.9073 50.6578 24.4091 49.6542 24.7721C48.6719 25.1351 47.5828 25.3166 46.387 25.3166Z" fill="#0F85F9"/>
<path d="M65.8398 25.3166C64.1528 25.3166 62.6473 24.9216 61.3233 24.1315C59.9994 23.32 58.953 22.2203 58.1843 20.8323C57.4155 19.4442 57.0312 17.9067 57.0312 16.2197C57.0312 14.5114 57.4155 12.9739 58.1843 11.6072C58.953 10.2406 59.9994 9.15151 61.3233 8.34005C62.6687 7.52859 64.1635 7.12286 65.8077 7.12286C67.1317 7.12286 68.3062 7.38979 69.3312 7.92364C70.3775 8.43614 71.1997 9.16218 71.7976 10.1018L71.157 10.9666V0.68457H75.3531V24.9323H71.3812V21.569L71.8296 22.4018C71.2317 23.3414 70.3989 24.0674 69.3312 24.5799C68.2635 25.0711 67.0997 25.3166 65.8398 25.3166ZM66.2882 21.4729C67.2491 21.4729 68.0926 21.2487 68.8187 20.8002C69.5447 20.3518 70.1106 19.7325 70.5163 18.9424C70.9434 18.1523 71.157 17.2447 71.157 16.2197C71.157 15.2161 70.9434 14.3192 70.5163 13.5291C70.1106 12.7177 69.5447 12.0877 68.8187 11.6393C68.0926 11.1908 67.2491 10.9666 66.2882 10.9666C65.3486 10.9666 64.5051 11.2015 63.7577 11.6713C63.0103 12.1197 62.4231 12.739 61.996 13.5291C61.5903 14.2979 61.3874 15.1947 61.3874 16.2197C61.3874 17.2447 61.5903 18.1523 61.996 18.9424C62.4231 19.7325 63.0103 20.3518 63.7577 20.8002C64.5051 21.2487 65.3486 21.4729 66.2882 21.4729Z" fill="#0F85F9"/>
<path d="M79.2569 24.9323V7.50724H83.453V24.9323H79.2569ZM79.2569 5.55333V1.06894H83.453V5.55333H79.2569Z" fill="#0F85F9"/>
<path d="M95.271 25.1244C93.3064 25.1244 91.7796 24.5906 90.6905 23.5229C89.6228 22.4338 89.089 20.907 89.089 18.9424V11.2549H86.078V7.50724H86.3984C87.2525 7.50724 87.9145 7.28302 88.3843 6.83458C88.8541 6.38614 89.089 5.73484 89.089 4.88067V3.53535H93.2851V7.50724H97.289V11.2549H93.2851V18.7182C93.2851 19.2948 93.3812 19.7859 93.5734 20.1916C93.7869 20.5974 94.1072 20.907 94.5343 21.1205C94.9827 21.3341 95.5486 21.4408 96.232 21.4408C96.3814 21.4408 96.5523 21.4302 96.7445 21.4088C96.958 21.3875 97.1609 21.3661 97.3531 21.3448V24.9323C97.0541 24.975 96.7124 25.0177 96.328 25.0604C95.9437 25.1031 95.5913 25.1244 95.271 25.1244Z" fill="#0F85F9"/>
<path d="M117.815 25.3166C116.107 25.3166 114.527 25.007 113.075 24.3877C111.644 23.7685 110.384 22.9036 109.295 21.7932C108.227 20.6828 107.394 19.3802 106.797 17.8854C106.199 16.3906 105.9 14.757 105.9 12.9846C105.9 11.2122 106.188 9.57859 106.764 8.0838C107.362 6.56765 108.195 5.26505 109.263 4.17598C110.352 3.06556 111.623 2.21139 113.075 1.61348C114.527 0.994206 116.107 0.68457 117.815 0.68457C119.524 0.68457 121.05 0.972852 122.396 1.54942C123.762 2.12598 124.916 2.89473 125.855 3.85567C126.795 4.79525 127.467 5.83093 127.873 6.9627L123.965 8.78849C123.517 7.59265 122.759 6.61036 121.691 5.84161C120.623 5.0515 119.331 4.65645 117.815 4.65645C116.321 4.65645 114.997 5.00879 113.843 5.71348C112.712 6.41817 111.825 7.38979 111.185 8.62833C110.566 9.86687 110.256 11.319 110.256 12.9846C110.256 14.6502 110.566 16.113 111.185 17.3729C111.825 18.6114 112.712 19.583 113.843 20.2877C114.997 20.9924 116.321 21.3448 117.815 21.3448C119.331 21.3448 120.623 20.9604 121.691 20.1916C122.759 19.4015 123.517 18.4086 123.965 17.2127L127.873 19.0385C127.467 20.1703 126.795 21.2166 125.855 22.1776C124.916 23.1172 123.762 23.8752 122.396 24.4518C121.05 25.0284 119.524 25.3166 117.815 25.3166Z" fill="#0F85F9"/>
<path d="M137.272 25.3166C135.926 25.3166 134.752 25.0177 133.748 24.4198C132.766 23.8218 132.008 22.989 131.474 21.9213C130.961 20.8536 130.705 19.6044 130.705 18.1737V7.50724H134.901V17.8213C134.901 18.5474 135.04 19.188 135.318 19.7432C135.617 20.277 136.033 20.7041 136.567 21.0244C137.122 21.3234 137.741 21.4729 138.425 21.4729C139.108 21.4729 139.717 21.3234 140.25 21.0244C140.784 20.7041 141.201 20.2664 141.5 19.7112C141.799 19.1559 141.948 18.494 141.948 17.7252V7.50724H146.144V24.9323H142.172V21.5049L142.525 22.1135C142.119 23.1812 141.446 23.982 140.507 24.5159C139.588 25.0497 138.51 25.3166 137.272 25.3166Z" fill="#0F85F9"/>
<path d="M150.045 24.9323V7.50724H153.985V11.383L153.664 10.8065C154.07 9.50385 154.7 8.5963 155.554 8.0838C156.43 7.5713 157.476 7.31505 158.693 7.31505H159.718V11.0307H158.213C157.017 11.0307 156.056 11.4044 155.33 12.1518C154.604 12.8778 154.241 13.9028 154.241 15.2268V24.9323H150.045Z" fill="#0F85F9"/>
<path d="M167.278 24.9323L160.424 7.50724H165.004L169.969 21.2166H168.271L173.268 7.50724H177.849L170.994 24.9323H167.278Z" fill="#0F85F9"/>
<path d="M188.119 25.3166C186.325 25.3166 184.756 24.9109 183.411 24.0994C182.065 23.288 181.019 22.1882 180.272 20.8002C179.524 19.4122 179.15 17.8747 179.15 16.1877C179.15 14.4367 179.524 12.8885 180.272 11.5432C181.04 10.1765 182.076 9.09812 183.379 8.30802C184.703 7.51791 186.176 7.12286 187.799 7.12286C189.166 7.12286 190.361 7.34708 191.386 7.79552C192.433 8.24396 193.319 8.86323 194.045 9.65333C194.771 10.4434 195.326 11.351 195.711 12.376C196.095 13.3796 196.287 14.4687 196.287 15.6432C196.287 15.9421 196.266 16.2518 196.223 16.5721C196.202 16.8924 196.148 17.17 196.063 17.4049H182.61V14.2018H193.693L191.707 15.7072C191.899 14.725 191.846 13.8494 191.547 13.0807C191.269 12.3119 190.799 11.7033 190.137 11.2549C189.497 10.8065 188.717 10.5822 187.799 10.5822C186.923 10.5822 186.144 10.8065 185.461 11.2549C184.777 11.682 184.254 12.3226 183.891 13.1768C183.549 14.0096 183.421 15.0239 183.507 16.2197C183.421 17.2875 183.56 18.2377 183.923 19.0705C184.308 19.882 184.863 20.5119 185.589 20.9604C186.336 21.4088 187.19 21.633 188.151 21.633C189.112 21.633 189.924 21.4302 190.586 21.0244C191.269 20.6187 191.803 20.0742 192.187 19.3908L195.583 21.0565C195.241 21.8893 194.707 22.626 193.981 23.2666C193.255 23.9073 192.39 24.4091 191.386 24.7721C190.404 25.1351 189.315 25.3166 188.119 25.3166Z" fill="#0F85F9"/>
<path d="M201.454 24.9323V20.4479H205.682V24.9323H201.454Z" fill="#0F85F9"/>
<path d="M209.972 24.9323L218.204 1.06894H223.842L232.074 24.9323H227.333L225.635 19.8073H216.41L214.681 24.9323H209.972ZM217.66 15.9635H224.386L220.414 4.07989H221.631L217.66 15.9635Z" fill="#0F85F9"/>
<path d="M234.73 24.9323V1.06894H239.086V24.9323H234.73Z" fill="#0F85F9"/>
</svg>
